<svg xmlns="http://www.w3.org/2000/svg" version="1.1" xmlns:xlink="http://www.w3.org/1999/xlink" xmlns:svgjs="http://svgjs.dev/svgjs" width="1000" height="623" viewBox="0 0 1000 623"><g transform="matrix(1,0,0,1,-0.6060606060606233,0.2522267206477409)"><svg viewBox="0 0 396 247" data-background-color="#ffffff" preserveAspectRatio="xMidYMid meet" height="623" width="1000" xmlns="http://www.w3.org/2000/svg" xmlns:xlink="http://www.w3.org/1999/xlink"><g id="tight-bounds" transform="matrix(1,0,0,1,0.2400000000000091,-0.09999999999999432)"><svg viewBox="0 0 395.52 247.2" height="247.2" width="395.52"><g><svg></svg></g><g><svg viewBox="0 0 395.52 247.2" height="247.2" width="395.52"><g transform="matrix(1,0,0,1,75.54432,63.77697994835854)"><svg viewBox="0 0 244.43135999999998 119.64604010328291" height="119.64604010328291" width="244.43135999999998"><g><svg viewBox="0 0 244.43135999999998 119.64604010328291" height="119.64604010328291" width="244.43135999999998"><g><svg viewBox="0 0 244.43135999999998 119.64604010328291" height="119.64604010328291" width="244.43135999999998"><g><svg viewBox="0 0 244.43135999999998 119.64604010328291" height="119.64604010328291" width="244.43135999999998"><g><svg viewBox="0 0 244.43135999999998 119.64604010328291" height="119.64604010328291" width="244.43135999999998"><g><svg viewBox="0 0 244.43135999999998 119.64604010328291" height="119.64604010328291" width="244.43135999999998"><g transform="matrix(1,0,0,1,0,0)"><svg width="244.43135999999998" viewBox="2.319999933242798 -32.400001525878906 66.18000030517578 32.400001525878906" height="119.64604010328291" data-palette-color="#ff0000"><path d="M2.34-20.12L8.18-25.93 12.5-25.93 12.5-16.77 24.8-16.77 30.42-11.11 30.42-6.05 24.39 0 19.63 0 19.63-9.79 7.96-9.79 2.34-15.19 2.34-20.12ZM13.13-7.42L13.13-4.76 17.92-4.76 17.92 0 6.81-0.02 2.32-5.35 2.32-7.42 13.13-7.42ZM19.63-19.14L19.63-21.17 14.21-21.17 14.21-25.93 25.68-25.93 29.54-22.07 29.54-19.14 19.63-19.14ZM57.59 0L56.22-3.54 45.63-3.54 47.87-9.96 53.73-9.96 45.07-32.4 55.59-32.4 68.5 0 57.59 0ZM48.68-18.07L42.75 0 32.32 0 43.89-30.93 48.68-18.07Z" opacity="1" transform="matrix(1,0,0,1,0,0)" fill="#ff0000" class="undefined-text-0" data-fill-palette-color="primary" id="text-0"></path></svg></g></svg></g></svg></g></svg></g></svg></g></svg></g></svg></g><path d="M238.974 57.777L238.974 9.812 11.399 9.812 11.399 237.388 238.974 237.388 238.974 189.423 228.184 189.423 228.184 226.598 22.188 226.598 22.188 20.602 228.184 20.602 228.184 57.777Z" fill="#ff0000" stroke="transparent" data-fill-palette-color="primary"></path></svg></g><defs></defs></svg><rect width="395.52" height="247.2" fill="none" stroke="none" visibility="hidden"></rect></g></svg></g></svg>